#!OML:ASF G:\JayActor3\Patient Classification 1\Patient 1\Session 6\male.ASF
:FULLY-SPECIFIED
:DEGREES
611
root 10.3457 16.2435 -4.60706 -10.6771 -50.7076 6.03772
lowerback 6.24236 -3.22525 4.71229
upperback 9.042 -4.59154 2.85076
thorax 5.84942 -2.21689 0.395534
lowerneck 12.12 -4.812 0.52333
upperneck 0.426929 -6.58624 -5.3838
head -2.17231 -3.1441 -1.44854
rclavicle 1.63003e-014 -3.65764e-014
rhumerus -31.0507 7.46326 -82.1422
rradius 30.9404
rwrist 3.327
rhand -19.2478 -9.34185
rfingers 7.12502
rthumb 7.06598 -39.2039
lclavicle 1.63003e-014 -3.65764e-014
lhumerus -31.1716 6.47543 82.2592
lradius 27.2409
lwrist 21.6043
lhand -16.9334 7.66126
lfingers 7.12502
lthumb 9.29965 37.4362
rfemur -23.2326 5.29135 12.3011
rtibia 36.4766
rfoot -11.4598 -9.91201
rtoes 5.35119
lfemur -1.97223 17.5208 -12.7045
ltibia 60.1517
lfoot 0.437084 1.00513
ltoes -7.00374
612
root 10.2512 16.2627 -4.59383 -10.4525 -50.4441 5.72524
lowerback 6.59431 -3.28939 4.66651
upperback 9.02454 -4.65059 2.84862
thorax 5.63436 -2.25453 0.442408
lowerneck 12.7152 -5.41318 0.179791
upperneck -0.53156 -7.43729 -4.63796
head -2.57727 -3.55778 -1.07061
rclavicle 7.71285e-014 -7.79236e-014
rhumerus -29.989 7.55847 -82.1068
rradius 30.7795
rwrist 3.63621
rhand -19.9325 -9.24475
rfingers 7.12502
rthumb 6.40503 -39.1279
lclavicle 7.71285e-014 -7.79236e-014
lhumerus -32.0529 7.88156 81.628
lradius 26.2674
lwrist 21.3267
lhand -17.4606 7.35804
lfingers 7.12502
lthumb 8.79086 37.155
rfemur -22.7172 5.48998 12.667
rtibia 36.3307
rfoot -11.7008 -10.2373
rtoes 5.78326
lfemur -3.63327 17.7778 -12.4764
ltibia 62.1543
lfoot 0.036993 1.23604
ltoes -6.55263
613
root 10.1586 16.2842 -4.57918 -10.2499 -50.179 5.49943
lowerback 6.8831 -3.36492 4.55361
upperback 8.99289 -4.72892 2.82776
thorax 5.44233 -2.30398 0.504292
lowerneck 13.2466 -6.02068 -0.218116
upperneck -1.39993 -8.29279 -3.84812
head -2.93162 -3.98087 -0.662212
rclavicle -2.0276e-014 -9.54166e-015
rhumerus -28.9066 7.63767 -82.0803
rradius 30.6311
rwrist 3.87327
rhand -20.6287 -9.13887
rfingers 7.12502
rthumb 5.73281 -39.0413
lclavicle -2.0276e-014 -9.54166e-015
lhumerus -32.9561 9.26144 80.9741
lradius 25.3476
lwrist 21.1445
lhand -17.9127 7.17813
lfingers 7.12502
lthumb 8.35455 36.9929
rfemur -22.2399 5.70313 12.962
rtibia 36.1573
rfoot -11.9618 -10.5588
rtoes 6.17549
lfemur -5.30282 18.031 -12.3902
ltibia 63.8948
lfoot -0.335532 1.25547
ltoes -6.44618
614
root 10.0672 16.3075 -4.56276 -10.0523 -49.9164 5.33739
lowerback 7.09645 -3.4575 4.36563
upperback 8.95371 -4.83775 2.81016
thorax 5.29012 -2.37193 0.607685
lowerneck 13.7019 -6.62254 -0.681838
upperneck -2.17617 -9.14234 -3.04781
head -3.23037 -4.40644 -0.23497
rclavicle 7.43455e-014 1.11319e-014
rhumerus -27.7926 7.77213 -82.0569
rradius 30.4954
rwrist 4.03007
rhand -21.3279 -9.02272
rfingers 7.12502
rthumb 5.05772 -38.9424
lclavicle 7.43455e-014 1.11319e-014
lhumerus -33.8758 10.6709 80.3075
lradius 24.4627
lwrist 20.9765
lhand -18.2347 7.06428
lfingers 7.12502
lthumb 8.04379 36.8912
rfemur -21.7947 5.91553 13.2029
rtibia 35.9547
rfoot -12.2475 -10.856
rtoes 6.5458
lfemur -6.9681 18.2616 -12.4316
ltibia 65.3743
lfoot -0.689689 1.05795
ltoes -6.46342
615
root 9.97644 16.3323 -4.54462 -9.82445 -49.6663 5.18057
lowerback 7.23804 -3.56061 4.13466
upperback 8.91116 -4.96856 2.81205
thorax 5.18018 -2.45291 0.751515
lowerneck 14.0731 -7.22179 -1.19555
upperneck -2.85321 -9.99079 -2.26222
head -3.46921 -4.83528 0.19763
rclavicle 4.85035e-014 -1.59028e-015
rhumerus -26.6538 7.95529 -82.0299
rradius 30.3692
rwrist 4.11718
rhand -22.0155 -8.87173
rfingers 7.12502
rthumb 4.39384 -38.8061
lclavicle 4.85035e-014 -1.59028e-015
lhumerus -34.803 12.0901 79.6529
lradius 23.6131
lwrist 20.842
lhand -18.4663 7.03908
lfingers 7.12502
lthumb 7.82025 36.8745
rfemur -21.3646 6.12149 13.4364
rtibia 35.7175
rfoot -12.5564 -11.1222
rtoes 6.88475
lfemur -8.60822 18.4723 -12.5467
ltibia 66.5979
lfoot -1.03645 0.664554
ltoes -6.49126
616
root 9.88599 16.358 -4.52508 -9.54718 -49.4377 4.98311
lowerback 7.32424 -3.6659 3.89002
upperback 8.86931 -5.10884 2.84392
thorax 5.10737 -2.53967 0.930802
lowerneck 14.351 -7.82589 -1.72321
upperneck -3.42739 -10.8459 -1.52738
head -3.64727 -5.2694 0.614797
rclavicle -6.48038e-014 1.74931e-014
rhumerus -25.4962 8.15036 -81.9855
rradius 30.2511
rwrist 4.18381
rhand -22.6543 -8.694
rfingers 7.12502
rthumb 3.7769 -38.6403
lclavicle -6.48038e-014 1.74931e-014
lhumerus -35.7236 13.5404 79.0019
lradius 22.7683
lwrist 20.6482
lhand -18.5786 7.05536
lfingers 7.12502
lthumb 7.71194 36.8947
rfemur -20.9316 6.31825 13.7011
rtibia 35.4427
rfoot -12.8847 -11.353
rtoes 7.17928
lfemur -10.2 18.6733 -12.6879
ltibia 67.5744
lfoot -1.3919 0.107318
ltoes -6.49348
617
root 9.79632 16.3838 -4.50426 -9.22151 -49.2329 4.7309
lowerback 7.37859 -3.76884 3.65226
upperback 8.82504 -5.24967 2.90549
thorax 5.05397 -2.62699 1.13515
lowerneck 14.5356 -8.43801 -2.24956
upperneck -3.89825 -11.7113 -0.857024
head -3.76497 -5.70948 1.0062
rclavicle -4.45278e-014 1.90833e-014
rhumerus -24.3397 8.34428 -81.9236
rradius 30.1492
rwrist 4.24724
rhand -23.2121 -8.50034
rfingers 7.12502
rthumb 3.23824 -38.4555
lclavicle -4.45278e-014 1.90833e-014
lhumerus -36.6445 15.0543 78.3263
lradius 21.9172
lwrist 20.3112
lhand -18.5586 7.09293
lfingers 7.12502
lthumb 7.73119 36.9316
rfemur -20.4829 6.48793 14.0093
rtibia 35.1279
rfoot -13.2218 -11.5324
rtoes 7.39942
lfemur -11.7301 18.8718 -12.8456
ltibia 68.3102
lfoot -1.7739 -0.547
ltoes -6.66836
618
root 9.70741 16.4091 -4.4828 -8.84404 -49.0678 4.41078
lowerback 7.41584 -3.84936 3.44294
upperback 8.77498 -5.3615 2.98703
thorax 5.00531 -2.69862 1.34271
lowerneck 14.6535 -9.07303 -2.73176
upperneck -4.28343 -12.5998 -0.247339
head -3.83575 -6.16173 1.36587
rclavicle 4.25399e-014 6.36111e-015
rhumerus -23.2113 8.46696 -81.8525
rradius 30.0668
rwrist 4.32881
rhand -23.6764 -8.30306
rfingers 7.12502
rthumb 2.78986 -38.2646
lclavicle 4.25399e-014 6.36111e-015
lhumerus -37.5733 16.5631 77.6174
lradius 21.0751
lwrist 19.8182
lhand -18.3986 7.14453
lfingers 7.12502
lthumb 7.88559 36.9775
rfemur -20.0207 6.64884 14.3756
rtibia 34.7771
rfoot -13.5642 -11.6629
rtoes 7.54481
lfemur -13.1897 19.0829 -12.9982
ltibia 68.8162
lfoot -2.20125 -1.2407
ltoes -6.9813
619
root 9.61935 16.4337 -4.46091 -8.411 -48.9518 4.01861
lowerback 7.45622 -3.91176 3.26473
upperback 8.70811 -5.44769 3.08879
thorax 4.93751 -2.75638 1.55433
lowerneck 14.712 -9.71953 -3.18741
upperneck -4.5823 -13.4996 0.30607
head -3.8598 -6.62006 1.69487
rclavicle 1.11319e-014 7.95139e-015
rhumerus -22.133 8.5414 -81.7806
rradius 30.0186
rwrist 4.43088
rhand -24.0476 -8.12752
rfingers 7.12502
rthumb 2.4314 -38.0934
lclavicle 1.11319e-014 7.95139e-015
lhumerus -38.5443 18.1109 76.8371
lradius 20.2457
lwrist 19.1265
lhand -18.1012 7.19865
lfingers 7.12502
lthumb 8.17263 37.0206
rfemur -19.5529 6.79898 14.8047
rtibia 34.3964
rfoot -13.8951 -11.7399
rtoes 7.56913
lfemur -14.5778 19.3246 -13.1368
ltibia 69.1004
lfoot -2.69466 -1.91443
ltoes -7.49313
620
root 9.53183 16.4571 -4.43868 -7.94207 -48.8929 3.5773
lowerback 7.5119 -3.96203 3.09482
upperback 8.61766 -5.51563 3.20678
thorax 4.83774 -2.80513 1.77985
lowerneck 14.7341 -10.3616 -3.6396
upperneck -4.80782 -14.3939 0.815336
head -3.84463 -7.07592 1.99943
rclavicle 1.90833e-014 0
rhumerus -21.1239 8.62809 -81.7236
rradius 30.0171
rwrist 4.51478
rhand -24.3079 -7.97973
rfingers 7.12502
rthumb 2.18001 -37.9483
lclavicle 1.90833e-014 0
lhumerus -39.6001 19.6724 75.9867
lradius 19.47
lwrist 18.3156
lhand -17.7078 7.26888
lfingers 7.12502
lthumb 8.55234 37.0757
rfemur -19.0876 6.94162 15.2805
rtibia 33.9991
rfoot -14.2151 -11.7511
rtoes 7.53542
lfemur -15.8865 19.5978 -13.2712
ltibia 69.171
lfoot -3.27022 -2.51889
ltoes -8.16337
